<?xml version="1.0" encoding="utf-8"?>
<!-- Generator: Adobe Illustrator 24.1.1, SVG Export Plug-In . SVG Version: 6.00 Build 0)  -->
<svg version="1.1" id="图层_1" xmlns="http://www.w3.org/2000/svg" xmlns:xlink="http://www.w3.org/1999/xlink" x="0px" y="0px"
	 viewBox="0 0 700 223" style="enable-background:new 0 0 700 223;" xml:space="preserve">
<style type="text/css">
	.st0{font-family:'AdobeSongStd-Light-GBpc-EUC-H';}
	.st1{font-size:17.6366px;}
	.st2{font-size:18px;}
	.st3{fill:none;stroke:#000000;stroke-miterlimit:10;}
</style>
<text transform="matrix(0.9759 0 0 1 74.3701 162.1484)" class="st0 st1">C#</text>
<text transform="matrix(1 0 0 1 39.9553 77.6343)" class="st0 st2">unity3d</text>
<text transform="matrix(1 0 0 1 139.6025 84.634)" class="st0 st2">python</text>
<text transform="matrix(1 0 0 1 218.6563 130.634)" class="st0 st2">html</text>
<text transform="matrix(1 0 0 1 218.877 68.0703)" class="st0 st2">css</text>
<text transform="matrix(1 0 0 1 251.2766 91.634)" class="st0 st2">javascript</text>
<text transform="matrix(1 0 0 1 374.5791 85.3335)" class="st0 st2">nodejs</text>
<text transform="matrix(1 0 0 1 409.9121 153.7896)" class="st0 st2">webpack</text>
<text transform="matrix(1 0 0 1 532.3682 93.2803)" class="st0 st2">java</text>
<text transform="matrix(1 0 0 1 548.5615 52.667)" class="st0 st2">spring</text>
<text transform="matrix(1 0 0 1 515.1758 149.0352)" class="st0 st2">jsp</text>
<text transform="matrix(1 0 0 1 576.0352 149.0176)" class="st0 st2">springboot</text>
<text transform="matrix(1 0 0 1 452.5791 52.4033)" class="st0 st2">react</text>
<text transform="matrix(1 0 0 1 275.3662 39.6338)" class="st0 st2">react-rudux</text>
<text transform="matrix(1 0 0 1 346.9473 131.0703)" class="st0 st2">vue</text>
<line class="st3" x1="75" y1="85" x2="85" y2="143"/>
<line class="st3" x1="107.5" y1="70.5" x2="132.5" y2="79.5"/>
<line class="st3" x1="164" y1="93.5" x2="218" y2="114.5"/>
<line class="st3" x1="230.5" y1="74" x2="233.5" y2="114"/>
<line class="st3" x1="291.5" y1="98" x2="258.5" y2="122"/>
<line class="st3" x1="303.5" y1="79.5" x2="325.5" y2="52.5"/>
<line class="st3" x1="354.5" y1="52.5" x2="385.5" y2="68.5"/>
<line class="st3" x1="364.5" y1="118.5" x2="391.5" y2="93.5"/>
<line class="st3" x1="335.5" y1="85.5" x2="365.5" y2="84.5"/>
<line class="st3" x1="409.5" y1="93.5" x2="426.5" y2="135.5"/>
<line class="st3" x1="378.5" y1="131.5" x2="399.5" y2="145.5"/>
<line class="st3" x1="457.5" y1="135.5" x2="477.5" y2="65.5"/>
<line class="st3" x1="498.5" y1="60.5" x2="519.5" y2="79.5"/>
<line class="st3" x1="548.5" y1="100.5" x2="532.5" y2="131.5"/>
<line class="st3" x1="558.5" y1="74.5" x2="570.5" y2="60.5"/>
<line class="st3" x1="560.5" y1="94.5" x2="586.5" y2="131.5"/>
<line class="st3" x1="583.5" y1="65.5" x2="597.5" y2="122.5"/>
<line class="st3" x1="378.5" y1="34.5" x2="449.5" y2="46.5"/>
<text transform="matrix(1 0 0 1 259.3672 209.2021)" class="st0 st2">MySQL</text>
<line class="st3" x1="238" y1="138" x2="275" y2="184"/>
</svg>
