<?xml version="1.0" encoding="utf-8"?>
<!-- Generator: Adobe Illustrator 24.1.1, SVG Export Plug-In . SVG Version: 6.00 Build 0)  -->
<svg version="1.1" id="b1906fbd-debd-48f4-becc-050b3be1d47c"
	 xmlns="http://www.w3.org/2000/svg" xmlns:xlink="http://www.w3.org/1999/xlink" x="0px" y="0px" viewBox="0 0 988.7 579.5"
	 style="enable-background:new 0 0 988.7 579.5;" xml:space="preserve">
<style type="text/css">
	.st0{fill:none;stroke:#3F3D56;stroke-miterlimit:10;}
	.st1{fill:#536DFE;}
	.st2{fill:#F2F2F2;}
	.st3{fill:url(#SVGID_1_);}
	.st4{fill:#3F3D56;}
	.st5{opacity:0.1;enable-background:new    ;}
	.st6{fill:#FFB9B9;}
	.st7{opacity:5.000000e-02;enable-background:new    ;}
	.st8{fill:#575A89;}
	.st9{fill:#CDD0DB;}
	.st10{fill:#9DA7C0;}
	.st11{opacity:0.3;fill:#FFFFFF;enable-background:new    ;}
	.st12{opacity:0.1;}
	.st13{fill:#57B894;}
	.st14{fill:#656380;}
	.st15{opacity:0.2;enable-background:new    ;}
	.st16{font-family:'YouYuan';}
	.st17{font-size:36px;}
</style>
<circle class="st0" cx="593.5" cy="76.6" r="25.1"/>
<path class="st1" d="M644.8,29.3l-6.1-6.1c-1.2-1.3-3.3-1.3-4.6-0.1c0,0,0,0,0,0L596,61l-16.1-16.3c-1.2-1.3-3.3-1.3-4.6,0
	c0,0,0,0,0,0l-6.1,6.1c-1.3,1.3-1.3,3.3,0,4.6l24.5,24.7c1.3,1.3,3.3,1.3,4.6,0l46.6-46.2C646,32.7,646.1,30.6,644.8,29.3
	C644.8,29.3,644.8,29.3,644.8,29.3z"/>
<path class="st2" d="M25.6,64.1h404.8c14.1,0,25.6,11.5,25.6,25.6v0.8c0,14.1-11.5,25.6-25.6,25.6H25.6C11.5,116,0,104.6,0,90.4
	v-0.8C0,75.5,11.5,64.1,25.6,64.1z"/>
<path class="st2" d="M26.2,154.2H431c14.1,0,25.6,11.5,25.6,25.6v0.8c0,14.1-11.5,25.6-25.6,25.6H26.2c-14.1,0-25.6-11.5-25.6-25.6
	v-0.8C0.6,165.6,12,154.2,26.2,154.2z"/>
<path class="st2" d="M26.8,244.3h404.8c14.1,0,25.6,11.5,25.6,25.6v0.8c0,14.1-11.5,25.6-25.6,25.6H26.8
	c-14.1,0-25.6-11.5-25.6-25.6v-0.8C1.1,255.8,12.6,244.3,26.8,244.3z"/>
<path class="st2" d="M27.3,334.4h404.8c14.1,0,25.6,11.5,25.6,25.6v0.8c0,14.1-11.5,25.6-25.6,25.6H27.3
	c-14.1,0-25.6-11.5-25.6-25.6V360C1.7,345.9,13.2,334.4,27.3,334.4z"/>
<path class="st0" d="M39.9,50.6h404.8c14.1,0,25.6,11.5,25.6,25.6V77c0,14.1-11.5,25.6-25.6,25.6H39.9c-14.1,0-25.6-11.5-25.6-25.6
	v-0.8C14.3,62.1,25.7,50.6,39.9,50.6z"/>
<path class="st0" d="M40.4,140.8h404.8c14.1,0,25.6,11.5,25.6,25.6v0.8c0,14.1-11.5,25.6-25.6,25.6H40.4
	c-14.1,0-25.6-11.5-25.6-25.6v-0.8C14.8,152.2,26.3,140.8,40.4,140.8z"/>
<path class="st0" d="M41,230.9h404.8c14.1,0,25.6,11.5,25.6,25.6v0.8c0,14.1-11.5,25.6-25.6,25.6H41c-14.1,0-25.6-11.5-25.6-25.6
	v-0.8C15.4,242.3,26.9,230.9,41,230.9z"/>
<path class="st0" d="M41.6,321h404.8c14.1,0,25.6,11.5,25.6,25.6v0.8c0,14.1-11.5,25.6-25.6,25.6H41.6C27.4,373,16,361.5,16,347.4
	v-0.8C16,332.5,27.4,321,41.6,321z"/>
<circle class="st0" cx="593.5" cy="167.2" r="25.1"/>
<circle class="st0" cx="593.5" cy="257.7" r="25.1"/>
<circle class="st0" cx="593.5" cy="348.2" r="25.1"/>
<path class="st1" d="M644.8,120.7l-6.1-6.1c-1.2-1.3-3.3-1.3-4.6-0.1c0,0,0,0,0,0L596,152.4l-16.1-16.3c-1.2-1.3-3.3-1.3-4.6,0
	c0,0,0,0,0,0l-6.1,6.1c-1.3,1.3-1.3,3.3,0,4.6l24.5,24.7c1.3,1.3,3.3,1.3,4.6,0l46.6-46.2C646,124,646.1,122,644.8,120.7
	C644.8,120.7,644.8,120.7,644.8,120.7z"/>
<path class="st1" d="M644.8,303.5l-6.1-6.1c-1.2-1.3-3.3-1.3-4.6-0.1c0,0,0,0,0,0L596,335.2l-16.1-16.3c-1.2-1.3-3.3-1.3-4.6,0
	c0,0,0,0,0,0l-6.1,6.1c-1.3,1.3-1.3,3.3,0,4.6l24.5,24.7c1.3,1.3,3.3,1.3,4.6,0l46.6-46.2C646,306.8,646.1,304.8,644.8,303.5
	C644.8,303.5,644.8,303.5,644.8,303.5z"/>
<ellipse class="st2" cx="809.2" cy="555.5" rx="154" ry="24"/>
<ellipse class="st0" cx="834.2" cy="546.5" rx="154" ry="24"/>
<linearGradient id="SVGID_1_" gradientUnits="userSpaceOnUse" x1="943.983" y1="-144.3051" x2="943.983" y2="421.75" gradientTransform="matrix(1 0 0 -1 -105.883 421.75)">
	<stop  offset="0" style="stop-color:#808080;stop-opacity:0.25"/>
	<stop  offset="0.5351" style="stop-color:#808080;stop-opacity:0.12"/>
	<stop  offset="1" style="stop-color:#808080;stop-opacity:0.1"/>
</linearGradient>
<path class="st3" d="M909.8,109.9c-0.4-0.5-0.9-1-1.4-1.5c3.6-4.1,7.3-8.3,7.3-13.6c0-6.4-5.7-11.3-7.8-17.3
	c-2.9-8.2,1.1-17,2.8-25.6c2.6-14.1-1.2-28.6-10.4-39.5c-1.7-2-3.6-3.9-6.1-4.7c-3.8-1.2-7.8,0.5-11.7,0.9
	c-13,1.6-24.8-9.6-37.8-8.6c-0.9,0-1.7,0.2-2.5,0.6c-1.7,0.8-2.6,2.6-3.6,4.1c-4.1,6-10.9,8.9-17.6,12c-0.9,0.2-1.7,0.6-2.4,1.1
	c-2,0.9-4,1.9-5.9,3.1c-12.8,7.6-10.9,18.2-3.4,24.7c-1.5,7.3-9,13.8-7.7,21.3c1,5.9,7.2,9.9,8.4,15.8c0.7,3.4-0.4,6.7-1.9,9.9
	c-14.3,3.3-30.5,9.4-31.7,20.2c-2.2,18.7-8.8,70.4-8.8,70.4s-7.6,41.4,21.4,21.8l-0.4,1.1c-5.2,15.9-8.8,32.2-10.7,48.8
	c-0.3,2.5-0.9,4.4-2,5c-0.4,0.2,0.4,0.6,2.1,1.1c-0.2,0.7-0.4,1.4-0.6,2.1c-3.2,12.1-5.2,24.5-6.1,37c-0.8,11.1-2.3,22.1-4.6,32.9
	c-6.9,34.6,0,79.1,0,79.1l15,70.7l2.6,12.1c1.7,1.9,3.8,3.4,6.1,4.4c1,4.3,1.7,8.7,2.1,13.2c0,0.5,0.1,1,0.1,1.5
	c-1.8,0.2-3.5,1.2-4.5,2.8c-5.4,7.5,0.8,13.6-19.9,28.6c-5.3,3.9-7.9,7.4-8.6,10.4l0,0v0c-0.7,3.2,0.8,5.9,3.5,7.6l0,0
	c0.5,0.3,0.9,0.6,1.4,0.8l0,0c0.3,0.1,0.5,0.2,0.8,0.3l0,0c0.3,0.1,0.5,0.2,0.8,0.3l0,0c0.3,0.1,0.5,0.2,0.8,0.3l0.1,0
	c0.3,0.1,0.6,0.2,0.9,0.2c0,0,0,0,0.1,0c0.3,0.1,0.5,0.1,0.8,0.2c0,0,0.1,0,0.1,0c0.3,0.1,0.6,0.1,0.9,0.1c0,0,0.1,0,0.1,0
	c0.3,0,0.5,0.1,0.8,0.1c0.1,0,0.1,0,0.2,0c0.3,0,0.6,0,0.9,0.1c0,0,0.1,0,0.1,0c0.3,0,0.5,0,0.8,0c0.1,0,0.1,0,0.2,0
	c0.3,0,0.6,0,0.9,0c0,0,0.1,0,0.1,0c0.3,0,0.5,0,0.8,0c0.1,0,0.1,0,0.2,0c0.3,0,0.6-0.1,0.9-0.1c0,0,0.1,0,0.1,0
	c0.3,0,0.5-0.1,0.8-0.1c0.1,0,0.2,0,0.2,0c0.3-0.1,0.6-0.1,0.9-0.2c0,0,0.1,0,0.1,0c0.3-0.1,0.5-0.1,0.8-0.2c0.1,0,0.2,0,0.2-0.1
	c0.3-0.1,0.6-0.2,0.9-0.3l0,0c0.3-0.1,0.6-0.2,0.8-0.3c0.1,0,0.1-0.1,0.2-0.1c0.3-0.1,0.6-0.2,0.9-0.4c13.8-6,42.1-21.8,42.1-21.8
	l0-0.1l0-0.1l0-0.1l0-0.1l0-0.2l0-0.2c0-0.1,0-0.2,0-0.2l0-0.2c0-0.1,0-0.2,0-0.3c0-0.1,0-0.2,0-0.2c0-0.1,0-0.2,0-0.4
	c0-0.2,0-0.4,0-0.7l0,0c-0.1-6.6-0.8-21.7-3.8-21.1c-1,0.2-1.7,1.6-2.4,3.3c-0.1-0.2-0.2-0.4-0.4-0.7c-2.9-5.6-7.1-15.3-7.5-24.7
	c2.4-1.7,4.5-3.6,6.5-5.8c0,0-1.5-6.5-2.8-13.3c-1.1-5.9-2.1-12.1-1.7-14.6c0.8-5.3-9.2-45.9-9.2-45.9s1-8.9,3.1-21.4
	c4-24.2,11.9-61.5,23.6-72.1c0.3-0.2,0.5-0.5,0.8-0.7c0,0,8.4,1.5,15.3,48.9l2,21.1c0.6,5.9,1.6,11.7,3,17.4
	c2.1,9.1,2.7,18.5,1.9,27.8c-0.9,12.5-1.2,27.1-1.4,37.4c-0.1,7.8-0.1,13-0.1,13c1.4,1.2,3,2.3,4.6,3.2v6.9c0,1.5-0.6,2.9-1.6,3.9
	l0,0c-1.1,1.2-1.9,2.7-2.3,4.2c-1.3,2.4-2.5,6.3-2.9,12.6c-1.5,20.3-2.3,18.1-2.3,18.1c-0.9,2.2-1.5,4.5-1.7,6.9l0,0v0
	c0,0.4-0.1,0.9-0.1,1.3c0,0.1,0,0.1,0,0.2c0,0.2,0,0.4,0,0.6c0,0.1,0,0.2,0,0.3c0,0.2,0,0.3,0,0.4c0,0.1,0,0.3,0,0.4
	c0,0.1,0,0.2,0,0.3c0,0.2,0.1,0.4,0.1,0.5c0,0.1,0,0.2,0.1,0.2c0,0.2,0.1,0.4,0.2,0.5c0,0.1,0,0.1,0.1,0.2c0.1,0.2,0.1,0.3,0.2,0.5
	c0,0,0,0.1,0.1,0.1c0.1,0.2,0.2,0.4,0.3,0.5c0,0,0.1,0.1,0.1,0.1c0.1,0.2,0.2,0.3,0.4,0.5c0,0,0.1,0.1,0.1,0.1
	c0.1,0.2,0.3,0.3,0.5,0.5c0,0,0,0,0.1,0c0.2,0.1,0.3,0.3,0.5,0.4c0,0,0.1,0,0.1,0.1c0.2,0.1,0.4,0.3,0.6,0.4c0,0,0.1,0,0.1,0.1
	c0.2,0.1,0.5,0.2,0.7,0.3c0,0,0.1,0,0.1,0c0.3,0.1,0.6,0.2,0.9,0.2l0,0c0.3,0.1,0.6,0.1,0.9,0.1c0,0,0.1,0,0.1,0c0.3,0,0.7,0,1,0.1
	c0.1,0,0.1,0,0.2,0c0.4,0,0.7,0,1.1,0c0.1,0,0.1,0,0.2,0c0.4,0,0.9-0.1,1.3-0.1c16.1-2.3,23.7-3.8,22.9-12.8
	c-0.5-5.4-1.8-13.4-2.7-18.8c-0.5-2.8-1.4-5.4-2.6-7.9c0-0.4,0.1-0.9,0.1-1.3c0.3-3.7,0.3-8.2-0.9-11.2l0.4-6.6
	c4-1,7.6-3.2,10.4-6.2c0,0,0.1-4.9,0.5-11.4c0.5-10,1.5-23.8,3.4-29.3c3.1-9,0-40.7,0-40.7s-11.5-54.2-0.8-77.6
	c9.4-20.6,9.4-41.2,0.3-61.3c0.2-0.1,0.3-0.3,0.5-0.5c0,0-2.3-1.5-1.5-18.8c0.6-13.2-3.3-26.9-5.2-32.6c2.9,1.3,5.9,2.3,9,3.2
	c17.6,5.3,19.1-14.3,19.1-14.3l3.8-29.4l4.5-43.8l0,0C917,128.5,918.7,119.9,909.8,109.9z M832.1,80.9c0,0.5-0.1,1-0.1,1.5
	c-0.1,1.6-0.5,3.1-1,4.6c0.5-2,0.8-4,0.9-6.1C832,80.8,832,80.8,832.1,80.9L832.1,80.9z M878.3,187.8c0.3,0.5,0.5,1,0.8,1.5l-1.9-1
	c0.7-3.6,1.9-7,3.4-10.3c1.9-3.8,3.5-7.8,4.7-11.8c-0.1,4.7,0.2,9.4,0.7,14.1C887.5,192.3,878.3,187.8,878.3,187.8z"/>
<path class="st4" d="M813.5,24c-2.4,1.7-5,3.6-5.9,6.4c-1.4,4.6,2.1,9.1,2.5,13.9c0.6,8.7-9.2,15.8-7.7,24.4c1,5.9,7,9.9,8.2,15.7
	c1.7,8.5-7.5,16-6.8,24.7c0.4,4.6,3.6,8.5,7.2,11.4c5.1,4,11.2,6.5,17.6,7.2c-0.4-7.4-5.9-14.1-5-21.5c0.6-5,4.2-9.2,6.2-13.8
	c3.6-8.2,2.5-17.6,0.3-26.3s-5.3-17.2-5.4-26.2c-0.1-5.4,2.4-13.3,0.6-18.4C823,15.4,817.6,21.2,813.5,24z"/>
<path class="st5" d="M813.5,24.2c-2.4,1.7-5,3.6-5.9,6.4c-1.4,4.6,2.1,9.1,2.5,13.9c0.6,8.7-9.2,15.8-7.7,24.4c1,5.9,7,9.9,8.2,15.7
	c1.7,8.5-7.5,16-6.8,24.7c0.4,4.6,3.6,8.5,7.2,11.4c5.1,4,11.2,6.5,17.6,7.2c-0.4-7.4-5.9-14.1-5-21.5c0.6-5,4.2-9.2,6.2-13.8
	c3.6-8.2,2.5-17.6,0.3-26.3s-5.3-17.2-5.4-26.2c-0.1-5.4,2.4-13.3,0.6-18.4C823,15.6,817.6,21.4,813.5,24.2z"/>
<path class="st6" d="M820.6,523.9l-6.7,6.7c0,0-23.9,12.7-20.9-4.5c0.8-5.1,1-10.3,0.5-15.4c-0.6-7.2-2-14.3-4.2-21.1l22.4-4.5
	c-3.7,11.7,2.4,26.5,6.2,34C819.4,522,820.6,523.9,820.6,523.9z"/>
<path class="st6" d="M871.5,510.3c-0.2,2.3-0.5,4.6-0.9,6.9c0,0-18.7,12.7-20.2-1.5c-1-9.2,1.2-13.4,2.9-15.2l0,0
	c1-1.1,1.6-2.4,1.6-3.9v-16.7l16.4,5.2l-0.7,14.2C871.8,502.2,871.8,506.6,871.5,510.3z"/>
<path class="st7" d="M820.6,523.9l-6.7,6.7c0,0-23.9,12.7-20.9-4.5c0.8-5.1,1-10.3,0.5-15.4c5.2-0.8,11.4,5,11.4,5
	c8.8,12.4,11.1,7.7,13,3.3C819.4,522,820.6,523.9,820.6,523.9z"/>
<path class="st4" d="M804.9,517.1c0,0-10.5-9.7-15.7-2.2s0.7,13.4-19.4,28.4s0,24.6,13.4,18.7s41.1-21.7,41.1-21.7s0-24.6-3.7-23.9
	S817.6,535.1,804.9,517.1z"/>
<path class="st7" d="M871.5,510.3c-0.2,2.3-0.5,4.6-0.9,6.9c0,0-18.7,12.7-20.2-1.5c-1-9.2,1.2-13.4,2.9-15.2c1.3-1,3.1-1.2,4.6-0.5
	c3-1.3,6.3,0.9,9,3.8C868.8,505.7,870.3,507.9,871.5,510.3z"/>
<path class="st4" d="M858,501.5c0,0-8.2-4.5-9.7,15.7s-2.2,17.9-2.2,17.9s-7.5,17.9,8.2,15.7s23.2-3.7,22.4-12.7
	c-0.5-5.4-1.7-13.2-2.6-18.6c-0.9-5.3-3.3-10.3-7-14.2C864.2,502.3,860.9,500.1,858,501.5z"/>
<path class="st4" d="M884.8,405.9c0,0,3,31.4,0,40.3c-1.8,5.4-2.8,19.1-3.3,29.1c-0.3,6.4-0.4,11.3-0.4,11.3
	c-14.2,14.9-30.6,0-30.6,0s0-5.2,0.1-12.9c0.2-10.2,0.5-24.7,1.4-37.1c0.8-9.2,0.1-18.5-1.9-27.5c-1.4-5.7-2.3-11.4-2.9-17.2
	l-1.9-21c-6.7-47-14.9-48.5-14.9-48.5c-0.3,0.2-0.5,0.4-0.8,0.7c-11.5,10.5-19.2,47.5-23.1,71.5c-2,12.3-3,21.2-3,21.2
	s9.7,40.3,9,45.6c-0.3,2.4,0.6,8.6,1.7,14.4c1.3,6.8,2.8,13.2,2.8,13.2c-18.7,20.2-31.4,4.5-31.4,4.5l-2.5-12l-14.7-70.2
	c0,0-6.7-44.1,0-78.4c2.2-10.8,3.7-21.7,4.5-32.7c0.8-12.4,2.8-24.7,6-36.7c0.9-3.6,1.9-7.1,3-10.6c1.7-5.2,28-4.9,54.4-4.9
	c19.8,0,38.7,2.7,44.1,12.3c1.3,2.2,2.4,4.4,3.4,6.6c9.5,20.3,9.7,41.2,0.3,62.1C873.6,352.1,884.8,405.9,884.8,405.9z"/>
<path class="st6" d="M822.1,134.8c0,0-39.6-40.3-9.7-37.3c6.8,0.7,11.4-0.5,14.4-2.8c3.5-2.6,4.9-6.5,5.3-10.7
	c0.8-8.2-2.5-17.1-2.5-17.1s40.3-32.1,32.1,8.2c-0.9,4.1-1.4,8.3-1.6,12.5c-0.1,8.6,2.7,11.8,6.6,13.2c6.7,2.3,16.6-0.9,21.1,6.5
	C896,120.6,822.1,134.8,822.1,134.8z"/>
<path class="st5" d="M822.1,134.8c0,0-39.6-40.3-9.7-37.3c6.8,0.7,11.4-0.5,14.4-2.8c3.5-2.6,4.9-6.5,5.3-10.7
	c0.8-8.2-2.5-17.1-2.5-17.1s40.3-32.1,32.1,8.2c-0.9,4.1-1.4,8.3-1.6,12.5c-0.1,8.6,2.7,11.8,6.6,13.2c6.7,2.3,16.6-0.9,21.1,6.5
	C896,120.6,822.1,134.8,822.1,134.8z"/>
<path class="st6" d="M881.9,55.6c0,17.7-14.4,32.1-32.1,32.1c-17.7,0-32.1-14.4-32.1-32.1c0-0.6,0-1.2,0.1-1.8
	c1-17.7,16.1-31.3,33.8-30.3C868.5,24.5,881.9,38.6,881.9,55.6L881.9,55.6z"/>
<path class="st7" d="M822.1,134.8c0,0-39.6-40.3-9.7-37.3c6.8,0.7,11.4-0.5,14.4-2.8c-5.8,9.6-12.3,26.8,17,25.2
	c26.8-1.5,26.3-12.2,23-19.2c6.7,2.3,16.6-0.9,21.1,6.5C896,120.6,822.1,134.8,822.1,134.8z"/>
<path class="st5" d="M884.8,270c-6.8,8.8-93.4-2.7-106.1-6.6c0.9-3.6,1.9-7.1,3-10.6c1.7-5.2,28-4.9,54.4-4.9
	c19.8,0,38.7,2.7,44.1,12.3c1.3,2.2,2.4,4.4,3.4,6.6C884.3,269.6,884.8,270,884.8,270z"/>
<path class="st8" d="M830.3,90.7c0,0-50.4,4.1-52.6,23.5c-2.1,18.6-8.6,69.8-8.6,69.8s-7.5,41.1,20.9,21.7l-0.4,1.1
	c-5.1,15.7-8.6,32-10.4,48.4c-0.3,2.4-0.9,4.4-1.9,5c-3.7,2.2,100.1,17.2,107.5,7.5c0,0-2.2-1.5-1.5-18.7s-6-35.1-6-35.1
	s-6-17.9,2.2-35.1s5.2-22.4,5.2-22.4l28.4-21.7c0,0,6.1-10.5-5.1-23.5c-6.8-7.7-16.4-12.5-26.7-13.1l-19.6-1.4
	c0,0,21.5,23.1-18.9,25.3S830.3,90.7,830.3,90.7z"/>
<path class="st7" d="M796.7,131.8c0,0,1.5,11.9-1.5,15.7s-3.7,20.9,0,31.4"/>
<path class="st5" d="M829.5,322.9c-11.5,10.5-19.2,47.5-23.1,71.5c-5.4-33.4,17.2-88.6,17.2-88.6L829.5,322.9z"/>
<path class="st5" d="M816.9,488.8c-18.7,20.2-31.4,4.5-31.4,4.5l-2.5-12c7.1,3.7,19,6.5,31.1-5.7
	C815.4,482.3,816.9,488.8,816.9,488.8z"/>
<path class="st5" d="M881.5,475.3c-0.3,6.4-0.4,11.3-0.4,11.3c-14.2,14.9-30.6,0-30.6,0s0-5.2,0.1-12.9
	C856.8,477.5,867.8,481.8,881.5,475.3z"/>
<path class="st9" d="M804.2,157.2h43.3c2.1,0,3.8,1.7,3.8,3.8v13.4c0,2.1-1.7,3.8-3.8,3.8h-43.3c-2.1,0-3.8-1.7-3.8-3.8v-13.4
	C800.5,158.9,802.1,157.2,804.2,157.2z"/>
<path class="st7" d="M804.2,157.2h43.3c2.1,0,3.8,1.7,3.8,3.8v13.4c0,2.1-1.7,3.8-3.8,3.8h-43.3c-2.1,0-3.8-1.7-3.8-3.8v-13.4
	C800.5,158.9,802.1,157.2,804.2,157.2z"/>
<path class="st4" d="M804.2,157.9h43.3c2.1,0,3.8,1.7,3.8,3.8v13.4c0,2.1-1.7,3.8-3.8,3.8h-43.3c-2.1,0-3.8-1.7-3.8-3.8v-13.4
	C800.5,159.6,802.1,157.9,804.2,157.9z"/>
<circle class="st10" cx="840.4" cy="168" r="2.2"/>
<path class="st7" d="M778.8,190.3c1.4-4.1,4.5-7.3,8.4-8.9c3.2-1.2,5.7-3.5,7.2-6.5c2.9-6.5,8.2-13.2,21.6-8.8s-3.7,7.5-3.7,7.5
	s30.6-4.5,18.7,4.5s-26.9,14.2-26.9,14.2l-7.4,7.8c-4.1,4.5-11.1,4.7-15.5,0.6c-0.3-0.3-0.6-0.6-0.9-0.9
	C778.2,197.1,777.6,193.5,778.8,190.3z"/>
<path class="st6" d="M778.1,188.8c1.4-4.1,4.5-7.3,8.4-8.9c3.2-1.2,5.7-3.5,7.2-6.5c2.9-6.5,8.2-13.2,21.6-8.8s-3.7,7.5-3.7,7.5
	s30.6-4.5,18.7,4.5s-26.9,14.2-26.9,14.2l-7.4,7.8c-4.1,4.5-11.1,4.7-15.5,0.6c-0.3-0.3-0.6-0.6-0.9-0.9
	C777.5,195.6,776.9,192,778.1,188.8z"/>
<path class="st7" d="M883.3,204.2l-5.2,12.7l-6.7-4.9l-18.7-13.7l-12.7-8.2c-17.9-13.4,0-15.7,0-15.7c-6.7-3,0-6,0-6
	c23.9-5.2,19.4,14.2,19.4,14.2l15.1,7.8l5,2.6L883.3,204.2z"/>
<path class="st6" d="M884.8,202.7l-5.2,12.7l-6.7-4.9l-18.7-13.7l-12.7-8.2c-17.9-13.4,0-15.7,0-15.7c-6.7-3,0-6,0-6
	c23.9-5.2,19.4,14.2,19.4,14.2l15.1,7.8l5,2.6L884.8,202.7z"/>
<path class="st7" d="M884.8,202.7l-5.2,12.7l-6.7-4.9c6.1,0.2,13.2-2.7,3.2-21.6l5,2.6L884.8,202.7z"/>
<path class="st8" d="M912.5,127.3l1.4,5.9l-4.4,43.4l-3.7,29.1c0,0-1.5,19.4-18.7,14.2s-18.7-10.5-18.7-10.5s24.6,8.2,9-20.9
	c0,0,9,4.5,7.5-7.5s0-32.9,0-32.9L912.5,127.3z"/>
<path class="st7" d="M881.9,55.6c0,15-10.4,28-25,31.3c-1.1-3.1-1.8-6.2-1.1-9.3c1.5-6.1,8.6-10.6,7.8-16.8c-0.1-0.7-0.3-1.4-0.7-2
	c-1.6-2.1-4.8-1-7.3-0.5c-6.9,1.1-13.6-3-15.6-9.6c-5.8,5.8-14.4,7.7-22.2,5.1c1-17.7,16.1-31.3,33.8-30.3
	C868.5,24.5,881.9,38.6,881.9,55.6L881.9,55.6z"/>
<path class="st4" d="M840.6,47.2c2.1,6.7,8.7,10.8,15.6,9.6c2.6-0.5,5.8-1.5,7.3,0.5c0.4,0.6,0.6,1.2,0.7,1.9
	c0.8,6.2-6.3,10.7-7.8,16.8c-1.6,6.3,3,12.4,4,18.8c0.5,3.5,0,7.1,0,10.6s0.8,7.3,3.5,9.7s7.5,2.4,9.2-0.7c8.4,4.4,5,18.2,11.4,25.2
	c3.5,3.9,9.3,4.8,14.5,4.3c1.2,0,2.4-0.4,3.4-1.1c0.9-0.9,1.4-1.9,1.7-3.1c1.3-5,1.1-10.3-0.7-15.1c-0.8-2.3-2-4.7-1.7-7.1
	c0.4-1.9,1.3-3.7,2.6-5.1c4-5,9.5-9.8,9.4-16.2c0-6.3-5.6-11.2-7.6-17.2c-2.8-8.2,1.1-16.9,2.7-25.4c2.5-13.9-1.2-28.3-10.2-39.2
	c-1.6-2-3.5-3.8-5.9-4.6c-3.7-1.2-7.6,0.5-11.4,0.9c-12.7,1.6-24.2-9.5-36.9-8.5c-0.8,0-1.7,0.2-2.5,0.6c-1.6,0.8-2.5,2.6-3.6,4.1
	c-5.6,8.4-16.7,10.8-25.3,16C787.8,38.3,821.3,65.8,840.6,47.2z"/>
<path class="st11" d="M783.3,559c-8.7,3.9-20.3,1.1-21.8-5.3c-1.8,8.6,11.8,12.8,21.8,8.3c13.4-6,41.1-21.7,41.1-21.7s0-1.2,0-3
	C823.5,537.8,796.5,553.1,783.3,559z"/>
<path class="st11" d="M876.6,537.6c-0.9,6.7-8.3,8.1-22.4,10.1c-7.1,1-9.5-2.1-9.9-5.9c-0.5,4.8,0.9,10.2,9.9,8.9
	c15.7-2.2,23.2-3.7,22.4-12.7C876.6,537.9,876.6,537.8,876.6,537.6z"/>
<g class="st12">
	<path d="M902.2,140.8c-5.2,0.5-11-0.4-14.5-4.3c-6.4-7-3-20.8-11.4-25.2c-1.8,3.1-6.6,3.1-9.2,0.7s-3.4-6.2-3.5-9.7s0.5-7.1,0-10.6
		c-1-6.4-5.6-12.5-4-18.8c1.5-6.1,8.6-10.6,7.8-16.8c-0.1-0.7-0.3-1.4-0.7-1.9c-1.6-2.1-4.8-1-7.3-0.5c-6.9,1.1-13.5-3-15.6-9.6
		C826.3,60.6,797.8,40.3,810,25c-19,15.5,12.2,39.7,30.7,21.9c2.1,6.7,8.7,10.8,15.6,9.6c2.6-0.5,5.8-1.5,7.3,0.5
		c0.4,0.6,0.6,1.2,0.7,1.9c0.8,6.2-6.3,10.7-7.8,16.8c-1.6,6.3,3,12.4,4,18.8c0.5,3.5,0,7.1,0,10.6s0.8,7.3,3.5,9.7s7.5,2.4,9.2-0.7
		c8.4,4.4,5,18.2,11.4,25.2c3.5,3.9,9.3,4.8,14.5,4.3c1.2,0,2.4-0.4,3.4-1.1c0.6-0.6,1.1-1.3,1.4-2.2
		C903.4,140.7,902.8,140.8,902.2,140.8z"/>
	<path d="M841.5,3.8c0.3-0.4,0.5-0.8,0.8-1.2c-0.1,0-0.1,0-0.2,0.1c-1.6,0.8-2.5,2.6-3.6,4.1c-0.4,0.5-0.7,1-1.1,1.5
		C839,7,840.3,5.5,841.5,3.8z"/>
</g>
<path class="st5" d="M800.5,212.7c0,0-1.9,6.7,10.8,9.7S800.5,212.7,800.5,212.7z"/>
<path class="st5" d="M794.9,232.6c0,0-6.5,4.7,9.2,12.9S794.9,232.6,794.9,232.6z"/>
<path class="st5" d="M780.3,311.5c0,0,17.6-5,20-12.4S780.3,311.5,780.3,311.5z"/>
<path class="st5" d="M780.3,406.1c0,0,7.6,3.7,12.4,3.2S780.3,406.1,780.3,406.1z"/>
<path class="st5" d="M783,416.6c0,0,3.4,1.7,9.7,2S783,416.6,783,416.6z"/>
<path class="st13" d="M911.7,445.2c8.1,2.9,17-1.2,19.9-9.3c2.9-8.1-1.2-17-9.3-19.9c-2.7-1-5.7-1.2-8.5-0.6l0.4,8l-3.8-6.8
	c-3.7,1.7-6.6,4.9-8,8.7c-0.5,1.4-0.8,2.8-0.9,4.2C901,436.4,905.2,442.8,911.7,445.2z"/>
<path class="st0" d="M930.4,537.9c-1.3-6.8,4.4-12.8,10.2-16.7s12.4-7.8,14.3-14.4c2.8-9.6-5.5-18.3-12-25.8
	c-4.8-5.6-9-11.7-12.3-18.3c-1.5-2.6-2.5-5.4-2.9-8.3c-0.5-4.2,0.8-8.4,2.2-12.5c4.6-13.5,9.4-26.8,14.6-40"/>
<path class="st0" d="M912.4,443.1c8.1,2.9,17-1.2,19.9-9.3c2.9-8.1-1.2-17-9.3-19.9c-2.7-1-5.7-1.2-8.5-0.6l0.4,8l-3.8-6.8
	c-3.7,1.7-6.6,4.9-8,8.7c-0.5,1.4-0.8,2.8-0.9,4.2C901.7,434.4,905.8,440.8,912.4,443.1z"/>
<path class="st13" d="M928.5,399c1.8-5,6-8.7,11.2-9.8l1.3,7.6l2.4-8c8.6,0.1,15.4,7.2,15.3,15.8s-7.2,15.4-15.8,15.3
	c-8.6-0.1-15.4-7.2-15.3-15.8C927.6,402.3,927.9,400.6,928.5,399L928.5,399z"/>
<path class="st0" d="M929.4,396.2c1.8-5,6-8.7,11.2-9.8l1.3,7.6l2.4-8c8.6,0.1,15.4,7.2,15.3,15.8s-7.2,15.4-15.8,15.3
	c-8.6-0.1-15.4-7.2-15.3-15.8C928.5,399.6,928.8,397.9,929.4,396.2L929.4,396.2z"/>
<path class="st13" d="M940.2,481.1c8.1,2.9,17-1.2,19.9-9.3c2.5-6.8-0.1-14.4-6.1-18.3l-1.8,6.1l-1.3-7.7c0,0,0,0,0,0
	c-8.1-2.9-17,1.2-19.9,9.3C927.9,469.2,932.1,478.1,940.2,481.1C940.1,481,940.2,481,940.2,481.1L940.2,481.1z"/>
<path class="st0" d="M940.9,478.3c8.1,2.9,17-1.2,19.9-9.3c2.5-6.8-0.1-14.4-6.1-18.3l-1.8,6.1l-1.3-7.7c0,0,0,0,0,0
	c-8.1-2.9-17,1.2-19.9,9.3C928.7,466.4,932.8,475.3,940.9,478.3C940.9,478.3,940.9,478.3,940.9,478.3L940.9,478.3z"/>
<path class="st13" d="M924,506.8c1.5,8.4,9.5,14.1,18,12.6c8.4-1.5,14.1-9.5,12.6-18c-1.5-8.4-9.5-14.1-18-12.6
	c-3.8,0.7-7.2,2.7-9.6,5.8l6.9,10.4l-9.5-5.5C923.7,501.9,923.6,504.4,924,506.8z"/>
<path class="st0" d="M924.6,504.8c1.5,8.4,9.5,14.1,18,12.6c8.4-1.5,14.1-9.5,12.6-18c-1.5-8.4-9.5-14.1-18-12.6
	c-3.8,0.7-7.2,2.7-9.6,5.8l6.9,10.4l-9.5-5.5C924.4,499.9,924.2,502.4,924.6,504.8z"/>
<path class="st14" d="M908.9,547.1c0,0,13.7-5.4,17.8-8.3s21.1-6.5,22.1-1.7s20.6,23.5,5.1,23.6s-35.9,2.5-40.1,0
	S908.9,547.1,908.9,547.1z"/>
<path class="st15" d="M954.2,559c-15.5,0.1-35.9,2.5-40.1,0c-3.1-1.9-4.4-8.8-4.8-11.9c-0.3,0-0.5,0-0.5,0s0.9,11.1,5,13.6
	s24.6,0.1,40.1,0c4.5,0,6-1.6,5.9-4C959.2,558.1,957.5,559,954.2,559z"/>
<text transform="matrix(1 0 0 1 136 90.7329)" class="st16 st17">姓名：梅晏恺</text>
<text transform="matrix(1 0 0 1 163.9998 180.8496)" class="st16 st17">性别：男</text>
<text transform="matrix(1 0 0 1 89.9998 360.3984)" class="st16 st17">手机：17612883723</text>
<text transform="matrix(1 0 0 1 53.2897 270.2784)" class="st16 st17">求职意向：web前端开发</text>
<path class="st2" d="M25.6,426.9h404.8c14.1,0,25.6,11.5,25.6,25.6v0.8c0,14.1-11.5,25.6-25.6,25.6H25.6C11.5,478.8,0,467.4,0,453.2
	v-0.8C0,438.3,11.5,426.9,25.6,426.9z"/>
<path class="st0" d="M39.9,413.4h404.8c14.1,0,25.6,11.5,25.6,25.6v0.8c0,14.1-11.5,25.6-25.6,25.6H39.9
	c-14.1,0-25.6-11.5-25.6-25.6v-0.8C14.3,424.9,25.7,413.4,39.9,413.4z"/>
<text transform="matrix(1 0 0 1 48.2897 452.8458)" class="st16 st17">邮箱：364390274@qq.com</text>
</svg>
